<svg width="18" height="21" viewBox="0 0 18 21" fill="none" xmlns="http://www.w3.org/2000/svg">
<g clip-path="url(#clip0_1_417)">
<path d="M12.3161 2.00134C11.4741 1.06339 10.298 0.546875 9 0.546875C7.69504 0.546875 6.51512 1.06027 5.67701 1.99241C4.82983 2.9348 4.41705 4.21561 4.51397 5.59864C4.70608 8.32719 6.71848 10.5468 9 10.5468C11.2815 10.5468 13.2905 8.32763 13.4856 5.59952C13.5838 4.22899 13.1684 2.95088 12.3161 2.00134ZM16.6152 20.5468H1.38482C1.18547 20.5495 0.988051 20.5063 0.806921 20.4203C0.625791 20.3343 0.46551 20.2078 0.337738 20.0499C0.056496 19.703 -0.0568664 19.2294 0.0270736 18.7504C0.392256 16.6602 1.53194 14.9044 3.32323 13.6718C4.91463 12.5776 6.93049 11.9754 9 11.9754C11.0695 11.9754 13.0854 12.5781 14.6768 13.6718C16.4681 14.904 17.6077 16.6598 17.9729 18.7499C18.0569 19.2289 17.9435 19.7026 17.6623 20.0495C17.5345 20.2075 17.3743 20.3341 17.1931 20.4201C17.012 20.5061 16.8146 20.5494 16.6152 20.5468Z" fill="#7EB693"/>
</g>
<defs>
<clipPath id="clip0_1_417">
<rect width="18" height="20" fill="white" transform="translate(0 0.546875)"/>
</clipPath>
</defs>
</svg>
